<svg width="122" height="157" viewBox="0 0 122 157" fill="none" xmlns="http://www.w3.org/2000/svg">
  <path
    d="M18.7 110.686C15.0333 104.952 8.7 89.9858 18 75.3858C15.8667 80.5191 11.2 94.7858 18.7 110.686Z"
    fill="#C5F74F" />
  <path
    d="M16.7 92.0858C16.54 104.246 23.3 113.486 26.7 116.586C19.8 108.186 18.1 96.7858 18.1 92.0858C18.1 80.7858 23.1 71.7525 26 68.4858C17.92 75.9258 16.4333 87.3191 16.7 92.0858Z"
    fill="#C5F74F" />
  <path
    d="M103.3 73.3858C106.967 79.1191 113.3 94.0858 104 108.686C106.133 103.552 110.8 89.2858 103.3 73.3858Z"
    fill="#C5F74F" />
  <path
    d="M105.3 91.9858C105.46 79.8258 98.7 70.5858 95.3 67.4858C102.2 75.8858 103.9 87.2858 103.9 91.9858C103.9 103.286 98.9 112.319 96 115.586C104.08 108.146 105.567 96.7525 105.3 91.9858Z"
    fill="#C5F74F" />
  <path
    d="M10.7 80.1858C10.78 79.7058 11.8667 78.1191 12.4 77.3858C7.84 111.786 19.2144 120.586 29.7 128.186C50.1 142.972 74.19 137.277 83.7 133.086C101.4 125.286 109.195 109.686 109.8 101.286C110.7 88.7858 110.3 79.6525 109.6 77.9858C110.603 80.3734 110.767 80.3525 110.8 80.6858C111.16 84.2858 111.219 95.1858 110.8 101.686C110 114.086 101.8 124.838 97.9 128.186C83.1 140.89 68.2 142.552 60.3 142.186C42.5 142.186 30.1 133.358 23 126.786C13.4929 117.986 10.7667 105.419 10.7 100.386V80.1858Z"
    fill="#C5F74F" />
  <path
    d="M8.7 69.4858H7.3C6.86667 54.1191 16.98 23.0658 60.9 21.7858H61.2868C105.207 23.0658 115.32 54.1191 114.887 69.4858H113.487C111.354 54.7525 97.9268 25.1658 61.2868 24.6858H60.9C24.26 25.1658 10.8333 54.7525 8.7 69.4858Z"
    fill="#C5F74F" />
  <path fill-rule="evenodd" clip-rule="evenodd"
    d="M91.7 53.2858L92.5 52.2858C95.5 53.6858 103.32 58.5458 110.6 66.7858C110.4 65.0525 106.84 58.9058 94.2 48.1858C96 49.6192 99.06 51.7258 96.9 48.6858C99.1333 50.5191 104.62 55.4458 108.7 60.4858C108.433 59.7191 107.04 57.1058 103.6 52.7858C104.433 53.5858 106.22 55.3858 106.7 56.1858C106.467 55.2191 104.74 52.0858 99.7 47.2858C101.3 48.6192 104.68 51.5858 105.4 52.7858C101.567 44.4191 85.6 26.7858 61.3 26.7858C35.6 26.7858 20.5667 43.4858 16.5 52.2858C17.7 50.9525 20.52 48.0458 22.2 47.0858L22.4 47.2858C20.1667 49.4191 15.5 54.2858 14.7 56.6858C15.5333 55.6191 17.58 53.2658 19.1 52.3858C18.1333 53.0525 15.6 55.6058 13.2 60.4858C15.2667 57.7858 20.34 51.8258 24.1 49.5858L24.9 50.0858C25.6667 49.4525 27.3 48.1458 27.7 47.9858C22.5333 52.3191 12.02 62.1458 11.3 66.7858C13.9 63.3858 21.2 55.7258 29.6 52.2858L29.9 53.0858C25.2667 56.1191 14.52 64.3458 8.6 72.9858V79.8858C13.0333 70.6525 29.68 52.2058 60.8 52.2858C91.92 52.3658 108.7 70.6525 113.2 79.7858V72.8858C110.867 68.9858 102 58.7858 91.7 53.2858ZM61.1 33.0858C61.4314 33.0858 61.7 32.8172 61.7 32.4858C61.7 32.1544 61.4314 31.8858 61.1 31.8858C60.7686 31.8858 60.5 32.1544 60.5 32.4858C60.5 32.8172 60.7686 33.0858 61.1 33.0858ZM62.1 37.0858C62.1 37.6381 61.6523 38.0858 61.1 38.0858C60.5477 38.0858 60.1 37.6381 60.1 37.0858C60.1 36.5335 60.5477 36.0858 61.1 36.0858C61.6523 36.0858 62.1 36.5335 62.1 37.0858ZM39.9 39.4858C39.9 40.0381 39.4523 40.4858 38.9 40.4858C38.3477 40.4858 37.9 40.0381 37.9 39.4858C37.9 38.9335 38.3477 38.4858 38.9 38.4858C39.4523 38.4858 39.9 38.9335 39.9 39.4858ZM84.3 39.4858C84.3 40.0381 83.8523 40.4858 83.3 40.4858C82.7477 40.4858 82.3 40.0381 82.3 39.4858C82.3 38.9335 82.7477 38.4858 83.3 38.4858C83.8523 38.4858 84.3 38.9335 84.3 39.4858ZM62.1 49.4858V47.4858H60.1V49.4858H62.1Z"
    fill="#C5F74F" />
  <path
    d="M16.4 14.8858L25.9 29.7858C26.54 29.0658 29.5 27.5525 30.9 26.8858L22.2 11.1858C21.2 12.8858 19.6 14.6858 16.4 14.8858Z"
    fill="#C5F74F" />
  <path
    d="M22.1072 6.7C22.1072 10.4003 19.1075 13.4 15.4072 13.4C11.7069 13.4 8.70724 10.4003 8.70724 6.7C8.70724 2.99969 11.7069 0 15.4072 0C19.1075 0 22.1072 2.99969 22.1072 6.7Z"
    fill="#C5F74F" />
  <path
    d="M105.6 14.9716L96.1 29.8716C95.46 29.1516 92.5 27.6383 91.1 26.9716L99.8 11.2716C100.8 12.9716 102.4 14.7716 105.6 14.9716Z"
    fill="#C5F74F" />
  <path
    d="M99.8928 6.78582C99.8928 10.4861 102.892 13.4858 106.593 13.4858C110.293 13.4858 113.293 10.4861 113.293 6.78582C113.293 3.08551 110.293 0.0858154 106.593 0.0858154C102.892 0.0858154 99.8928 3.08551 99.8928 6.78582Z"
    fill="#C5F74F" />
  <path fill-rule="evenodd" clip-rule="evenodd"
    d="M6.4 81.9858H8.8V99.8858H6.4V106.086C5 105.352 1.76 103.206 0 100.486V93.4858H1V91.4858H0V85.1858H1V83.3858H0V78.0858H1V76.1858H0L0.3 73.5858L2.6 64.7858C3.06667 64.0191 4.24 62.4058 5.2 62.0858V71.4858L6.4 72.4858V81.9858ZM3 102.586L1.8 101.586C2.3 100.652 3.3 98.7258 3.3 98.4858C3.3 98.2458 3.23333 83.7191 3.2 76.4858L3.6 74.5858C4 75.0191 4.84 76.0058 5 76.4858V98.4858C5.03333 98.8191 4.68 100.106 3 102.586Z"
    fill="#C5F74F" />
  <path fill-rule="evenodd" clip-rule="evenodd"
    d="M115.5 81.9858H113.1V99.8858H115.5V106.086C116.9 105.352 120.14 103.206 121.9 100.486V93.4858H120.9V91.4858H121.9V85.1858H120.9V83.3858H121.9V78.0858H120.9V76.1858H121.9L121.6 73.5858L119.3 64.7858C118.833 64.0191 117.66 62.4058 116.7 62.0858V71.4858L115.5 72.4858V81.9858ZM118.9 102.586L120.1 101.586C119.6 100.652 118.6 98.7258 118.6 98.4858C118.6 98.2458 118.667 83.7191 118.7 76.4858L118.3 74.5858C117.9 75.0191 117.06 76.0058 116.9 76.4858V98.4858C116.867 98.8191 117.22 100.106 118.9 102.586Z"
    fill="#C5F74F" />
  <path
    d="M8.5 107.086V102.786C10.42 120.466 23 131.586 33.9 137.386C13.8 132.886 7.73333 115.652 7.5 108.086L8.5 107.086Z"
    fill="#C5F74F" />
  <path
    d="M113.3 107.086V102.786C111.38 120.466 98.8 131.586 87.9 137.386C108 132.886 114.067 115.652 114.3 108.086L113.3 107.086Z"
    fill="#C5F74F" />
  <path
    d="M71.8 154.686C72.04 153.006 71.1667 151.052 70.8 150.186C72.56 150.186 77.1 148.919 78.2 148.586C79.08 149.946 79 152.452 78.8 153.486C78 153.886 73.2 154.552 71.8 154.686Z"
    fill="#C5F74F" />
  <path
    d="M53.1 150.186C57.4 150.986 62.1 151.386 68.9 150.386C69.9 152.386 70 154.186 69.7 154.886C63.5 157.186 56.2 155.986 52.1 154.886C51.78 152.966 52.6333 150.952 53.1 150.186Z"
    fill="#C5F74F" />
  <path
    d="M51.5 149.886C50 151.586 50.3 153.786 50.7 154.686L45.9 153.586C45.42 151.426 46.1667 149.919 46.5 149.186C47.62 149.426 50.7333 149.819 51.5 149.886Z"
    fill="#C5F74F" />
  <path
    d="M92.8 143.086C87.44 146.286 82.0333 147.819 80 148.186C80.88 149.386 80.8333 151.886 80.7 152.986C81.66 153.226 86.0333 151.486 88.1 150.586C88.5 151.066 89.1333 151.052 89.4 150.986L93.1 148.786C93.74 146.946 93.1667 144.219 92.8 143.086Z"
    fill="#C5F74F" />
  <path fill-rule="evenodd" clip-rule="evenodd"
    d="M107.4 138.386C108.633 137.919 110.92 134.526 110.2 124.686C109.5 125.952 107.5 128.906 105.1 130.586C106 132.052 107.72 135.666 107.4 138.386ZM14.3 138.586C13.0667 138.119 10.78 134.726 11.5 124.886C12.2 126.152 14.2 129.106 16.6 130.786C15.7 132.252 13.98 135.866 14.3 138.586ZM16.2 140.586C15.7333 138.719 15.4 134.366 17.8 131.886C18.4 132.552 19.88 133.946 21 134.186C19.9667 135.819 18.28 140.026 19.8 143.786C19 143.352 17.16 142.106 16.2 140.586ZM22.1 134.986C19.86 137.786 20.4333 142.619 21 144.686L21.9 145.486C20.86 140.606 22.4667 137.086 23.4 135.886L22.1 134.986ZM23.1 145.986C22.6 143.919 22.16 139.146 24.4 136.586L25.5 137.086C24.5 138.452 22.78 142.286 23.9 146.686L23.1 145.986ZM26.8 137.486C24.72 140.846 24.9333 145.552 25.3 147.486L27 148.486C25.88 143.926 28.6 140.219 30.2 138.786L26.8 137.486ZM103.9 131.686C106.3 134.166 105.967 138.519 105.5 140.386C104.54 141.906 102.7 143.152 101.9 143.586C103.42 139.826 101.733 135.619 100.7 133.986C101.82 133.746 103.3 132.352 103.9 131.686ZM100.7 144.486C101.267 142.419 101.84 137.586 99.6 134.786L98.3 135.686C99.2333 136.886 100.84 140.406 99.8 145.286L100.7 144.486ZM97.3 136.386C99.54 138.946 99.1 143.719 98.6 145.786L97.8 146.486C98.92 142.086 97.2 138.252 96.2 136.886L97.3 136.386ZM96.4 147.286C96.7667 145.352 96.98 140.646 94.9 137.286L91.5 138.586C93.1 140.019 95.82 143.726 94.7 148.286L96.4 147.286ZM30 141.786L32.1 139.186H35.1C44.3 143.086 67.22 148.546 85.3 139.186L89.1 138.786C89.8333 139.186 91.46 140.286 92.1 141.486C87.6 144.219 75.04 149.586 60.8 149.186C46.56 148.786 34.3333 144.086 30 141.786ZM29.403 143.486C35.8086 146.711 42.1 148.386 44.8 148.986C43.7483 150.195 43.8407 152.077 44 153.186C41.9 152.986 37.4698 151.693 35 150.786C34.522 151.27 33.785 151.515 33.4663 151.448L29.0445 149.23C28.2797 147.376 28.9648 144.628 29.403 143.486ZM31.4 148.941C32.0075 148.941 32.5 148.448 32.5 147.841C32.5 147.233 32.0075 146.741 31.4 146.741C30.7925 146.741 30.3 147.233 30.3 147.841C30.3 148.448 30.7925 148.941 31.4 148.941Z"
    fill="#C5F74F" />
  <path
    d="M34.4 77.1858C28.24 73.9058 26.7 79.1525 26.7 82.1858C26.14 90.6658 31.4667 97.8525 34.2 100.386C38.44 105.106 44.7 107.286 47.3 108.086C50.1 108.947 51 108.019 51.1 107.386C52.06 99.9458 47.9667 90.7525 45.8 87.0858C44.5667 85.1525 40.56 80.4658 34.4 77.1858Z"
    fill="#C5F74F" />
  <path
    d="M87.5025 77.1858C93.6625 73.9058 95.2025 79.1525 95.2025 82.1858C95.7625 90.6658 90.4359 97.8525 87.7025 100.386C83.4625 105.106 77.2025 107.286 74.6025 108.086C71.8025 108.947 70.9025 108.019 70.8025 107.386C69.8425 99.9458 73.9359 90.7525 76.1025 87.0858C77.3359 85.1525 81.3425 80.4658 87.5025 77.1858Z"
    fill="#C5F74F" />
</svg>