<svg width="319" height="516" viewBox="0 0 319 516" fill="none" xmlns="http://www.w3.org/2000/svg">
  <path
    d="M67.2047 381.298L0.297943 358.879L114.616 24.6466L158.436 0.192596H161.024L204.842 24.6466L319 358.879L250.449 381.298L161.024 101.024H158.436L67.2047 381.298ZM96.3937 291.626L158.436 269.208H161.024L221.837 291.626L250.449 381.298L161.024 357.087H158.436L67.2047 381.298L96.3937 291.626Z"
    fill="white" />
  <path
    d="M158.436 381.298L83.8632 403.717L111.627 465.367L106.075 420.531L128.286 476.576L144.945 493.389L139.392 459.762L158.436 515.807H161.023L194.92 487.785L206.026 442.949L211.579 465.367L239.343 403.717L161.023 381.298H158.436Z"
    fill="#1269F4" />
</svg>
  